:SAMPLES-PER-SECOND 30
:FULLY-SPECIFIED
:DEGREES
601
root  -4.85182 40.9952 -0.582096 1.82657 -86.9823 2.78128
RightUpLeg  2.43224 -0.943032 0.230264
RightLeg  -6.71808 -22.6563 3.96945
RightFoot  0.402579 -0.0809998 0.826989
RightToes  -3.13588e-008 1.75238e-005 3.56266e-009
Spine  14.0133 11.2028 10.136
Spine1  -17.829 12.1602 -18.7472
HEad  -11.2116 -18.0862 5.87323
LeftShoulder1  1.40222 -1.36594 -22.475
LeftArm  -6.50327 27.9216 -31.8525
LeftForeArm  165.143 -55.6823 -164.96
LeftHand  -0.949077 -7.21142 9.07569
RightShoulder  4.47645 9.39824 28.7312
RightArm  17.8947 19.8739 19.3839
RightForeArm  77.2199 79.2029 92.3848
RightHand  -1.50569 10.1198 -11.6039
LeftUpLeg  0.698351 2.20306 5.09288
LeftLeg  -3.95228 11.6415 -1.30922
LeftFoot  1.68377 0.660331 -5.87129
LeftToes  4.76812e-008 1.47286e-008 1.3089e-009
602
root  -4.80202 40.9858 -0.555156 7.32684 -87.543 -2.53021
RightUpLeg  2.3312 -0.701904 0.460522
RightLeg  -7.24106 -22.3473 4.13396
RightFoot  0.70001 -0.0669099 0.634904
RightToes  -3.13588e-008 1.75238e-005 3.56266e-009
Spine  14.4753 11.264 10.5158
Spine1  -18.0142 12.2646 -19.044
HEad  -11.9712 -17.344 6.1649
LeftShoulder1  1.31544 -1.0726 -22.414
LeftArm  -4.06947 33.8594 -32.935
LeftForeArm  168.518 -54.4326 -165.871
LeftHand  -1.09131 -7.52425 10.1333
RightShoulder  4.28644 9.04208 28.1921
RightArm  16.7772 22.2417 20.4977
RightForeArm  84.5418 79.0531 99.8366
RightHand  -1.46371 9.98694 -11.3866
LeftUpLeg  0.523476 2.32344 5.27725
LeftLeg  -3.94996 12.0966 -1.33672
LeftFoot  1.50255 0.626635 -5.64665
LeftToes  4.76812e-008 1.47286e-008 1.3089e-009
603
root  -4.73227 40.9815 -0.540452 9.54364 -87.962 -4.68036
RightUpLeg  2.15884 -0.469967 0.584196
RightLeg  -7.35965 -22.2765 3.99337
RightFoot  0.84848 -0.0625721 0.591961
RightToes  -3.13588e-008 1.75238e-005 3.56266e-009
Spine  15.0841 11.2423 11.2785
Spine1  -18.0482 12.3875 -20.0982
HEad  -12.4038 -17.4827 6.6565
LeftShoulder1  1.25072 -0.890059 -22.1226
LeftArm  -2.51624 37.2248 -34.5778
LeftForeArm  170.288 -54.358 -166.042
LeftHand  -1.22194 -7.46886 11.3436
RightShoulder  4.20561 8.84494 28.0807
RightArm  15.237 23.6601 21.3188
RightForeArm  89.0385 78.8466 104.633
RightHand  -1.44443 10.1482 -11.1305
LeftUpLeg  0.419102 2.33732 5.28658
LeftLeg  -3.93697 12.4649 -1.36887
LeftFoot  1.45696 0.603155 -5.45352
LeftToes  4.76812e-008 1.47286e-008 1.3089e-009
604
root  -4.66105 40.979 -0.543626 8.85461 -87.676 -4.00818
RightUpLeg  2.07737 -0.388417 0.663885
RightLeg  -7.39355 -22.7758 3.99476
RightFoot  0.91965 -0.0482953 0.392386
RightToes  -3.13588e-008 1.75238e-005 3.56266e-009
Spine  15.2381 11.0007 11.8596
Spine1  -17.3874 12.3795 -20.6501
HEad  -12.7654 -17.3265 6.96934
LeftShoulder1  1.34645 -1.19202 -22.3436
LeftArm  -2.65244 37.6558 -35.3966
LeftForeArm  172.217 -55.1436 -165.803
LeftHand  -0.928713 -7.77127 8.53965
RightShoulder  4.2076 8.80474 28.212
RightArm  13.9693 24.6833 21.8746
RightForeArm  88.0595 78.8127 104.496
RightHand  -1.51055 10.1985 -11.5859
LeftUpLeg  0.23472 2.25303 5.24781
LeftLeg  -3.8766 12.2507 -1.28024
LeftFoot  1.5516 0.588257 -5.30871
LeftToes  4.76812e-008 1.47286e-008 1.3089e-009
605
root  -4.58703 40.9819 -0.561014 4.74796 -87.0555 -0.0641785
RightUpLeg  2.11564 -0.462744 0.579676
RightLeg  -7.26699 -23.2944 3.94059
RightFoot  0.907149 -0.0426284 0.32394
RightToes  -3.13588e-008 1.75238e-005 3.56266e-009
Spine  15.57 10.5619 12.1081
Spine1  -17.004 12.1023 -20.8259
HEad  -12.4561 -16.823 6.73958
LeftShoulder1  1.41246 -1.33262 -22.9084
LeftArm  -2.98278 35.4484 -35.2392
LeftForeArm  171.645 -56.0214 -165.302
LeftHand  -0.962601 -7.61275 8.93608
RightShoulder  4.24514 8.92395 28.184
RightArm  13.4261 25.2096 22.1872
RightForeArm  85.5478 78.9422 101.78
RightHand  -1.45218 10.3802 -11.0348
LeftUpLeg  0.23129 2.06432 5.08217
LeftLeg  -4.00064 11.8613 -1.20107
LeftFoot  1.77214 0.590588 -5.37349
LeftToes  4.76812e-008 1.47286e-008 1.3089e-009
606
root  -4.51893 40.9775 -0.587581 2.32568 -86.1164 2.28574
RightUpLeg  1.9398 -0.600729 0.478516
RightLeg  -6.79546 -23.9681 3.82254
RightFoot  0.775842 -0.0436927 0.357327
RightToes  -3.13588e-008 1.75238e-005 3.56266e-009
Spine  15.6057 10.125 11.6459
Spine1  -16.7775 11.6602 -20.0447
HEad  -11.5754 -17.1002 6.13459
LeftShoulder1  1.51845 -1.62784 -23.3124
LeftArm  -3.54702 32.0676 -35.1347
LeftForeArm  171.402 -57.2324 -164.627
LeftHand  -1.07558 -7.3341 10.1367
RightShoulder  4.27773 9.02079 28.1791
RightArm  13.4711 25.204 22.1415
RightForeArm  83.4076 79.0122 99.7164
RightHand  -1.50263 10.0447 -11.6335
LeftUpLeg  0.17713 1.9456 4.96856
LeftLeg  -4.32263 11.2047 -1.25722
LeftFoot  2.04073 0.576667 -5.16276
LeftToes  4.76812e-008 1.47286e-008 1.3089e-009
